<svg width="121" height="154" viewBox="0 0 121 154" fill="none" xmlns="http://www.w3.org/2000/svg">
<g opacity="0.4" filter="url(#filter0_b_803_118)">
<path d="M113.042 121.66C118.626 128.392 121.418 131.759 120.501 136.03C119.584 140.302 116.207 141.956 109.452 145.265C103.687 148.09 97.5653 150.183 91.2277 151.478C78.9824 153.979 66.309 153.422 54.3303 149.856C42.3516 146.29 31.4373 139.825 22.5541 131.033C13.671 122.241 7.09312 111.394 3.40327 99.453C-0.286562 87.5118 -0.9745 74.845 1.40038 62.5744C3.77527 50.3038 9.13969 38.8083 17.0185 29.1062C24.8972 19.404 35.0472 11.7947 46.5692 6.95217C52.5324 4.44593 58.7678 2.72085 65.1216 1.80057C72.5655 0.722396 76.2874 0.183308 79.4541 3.19295C82.6207 6.20259 82.2146 10.5572 81.4022 19.2664L80.1711 32.4659C79.745 37.0341 79.5319 39.3182 78.8706 40.7343C78.1416 42.2954 78.0665 42.3978 76.7962 43.5618C75.6439 44.6177 71.8918 46.1946 64.3876 49.3485C59.8377 51.2607 55.8296 54.2656 52.7184 58.0968C49.6072 61.9281 47.4888 66.4675 46.551 71.313C45.6132 76.1585 45.8849 81.1605 47.3419 85.8759C48.799 90.5914 51.3965 94.8747 54.9044 98.3465C58.4122 101.818 62.7222 104.371 67.4524 105.78C72.1827 107.188 77.1872 107.408 82.0228 106.42C89.998 104.791 93.9856 103.976 95.5327 104.198C97.2382 104.442 97.3581 104.484 98.8407 105.362C100.186 106.158 101.65 107.924 104.579 111.455L113.042 121.66Z" fill="url(#paint0_linear_803_118)"/>
</g>
<defs>
<filter id="filter0_b_803_118" x="-29.9843" y="-29.0532" width="180.657" height="212.069" filterUnits="userSpaceOnUse" color-interpolation-filters="sRGB">
<feFlood flood-opacity="0" result="BackgroundImageFix"/>
<feGaussianBlur in="BackgroundImage" stdDeviation="15"/>
<feComposite in2="SourceAlpha" operator="in" result="effect1_backgroundBlur_803_118"/>
<feBlend mode="normal" in="SourceGraphic" in2="effect1_backgroundBlur_803_118" result="shape"/>
</filter>
<linearGradient id="paint0_linear_803_118" x1="134.514" y1="28.4988" x2="17.5169" y2="125.533" gradientUnits="userSpaceOnUse">
<stop stop-color="#FF5B96" stop-opacity="0.4"/>
<stop offset="1" stop-color="#FF5B79" stop-opacity="0.25"/>
</linearGradient>
</defs>
</svg>
