<svg width="54" height="54" viewBox="0 0 54 54" fill="none" xmlns="http://www.w3.org/2000/svg">
<path d="M24.8434 6.01719C31.2894 6.01719 37.7353 6.01681 44.1813 6.01752C45.5547 6.01768 46.1421 6.60205 46.1425 7.97995C46.1445 14.5374 46.1475 21.0948 46.1344 27.6521C46.1334 28.0987 46.2746 28.3961 46.5902 28.7112C50.2335 32.3478 51.4907 36.7034 49.979 41.6166C48.4831 46.4784 45.0676 49.4786 40.0359 50.3553C35.2117 51.1957 31.1955 49.5604 28.0351 45.8386C27.7412 45.4925 27.4601 45.3491 27.0069 45.3499C19.8365 45.3636 12.6661 45.3598 5.49565 45.3592C4.02223 45.3591 3.4588 44.7873 3.4588 43.2959C3.45864 31.5558 3.45864 19.8156 3.4588 8.07541C3.4588 6.59444 4.03216 6.01752 5.50553 6.01741C11.9515 6.01698 18.3975 6.01719 24.8434 6.01719ZM4.31585 13.7106C4.31585 13.975 4.31585 14.1768 4.31585 14.3787C4.31585 24.0193 4.31579 33.6599 4.31596 43.3006C4.31596 44.3176 4.50801 44.5166 5.50509 44.5168C12.4523 44.5178 19.3995 44.5173 26.3467 44.5173C26.5434 44.5173 26.74 44.5173 26.8544 44.5173C26.272 42.8039 25.7043 41.1339 25.0983 39.3513C24.044 39.3513 22.8484 39.3513 21.6423 39.3513C21.6423 37.3502 21.6423 35.427 21.6423 33.4411C21.8733 33.4411 22.0722 33.4411 22.2711 33.4411C23.3857 33.441 24.5003 33.4479 25.6146 33.4331C25.7755 33.431 26.0187 33.3705 26.0804 33.2582C26.3176 32.8261 26.4965 32.362 26.7359 31.8224C24.9896 31.8224 23.3275 31.8224 21.6602 31.8224C21.6602 29.8004 21.6602 27.8465 21.6602 25.9162C23.7055 25.9162 25.6996 25.9162 27.7562 25.9162C27.7562 27.3608 27.7562 28.7565 27.7562 30.1386C32.9181 24.623 38.7355 23.76 45.2699 27.4674C45.2699 22.8834 45.2699 18.307 45.2699 13.7106C31.6156 13.7106 18.0055 13.7106 4.31585 13.7106ZM38.0312 47.5193C43.3223 47.5128 47.6003 43.2325 47.593 37.9523C47.5857 32.6932 43.2602 28.3952 37.9892 28.4095C32.7358 28.4239 28.4792 32.6993 28.4741 37.9667C28.4688 43.2664 32.7303 47.5258 38.0312 47.5193Z" fill="#361041"/>
<path d="M21.6479 18.3237C23.6661 18.3237 25.6456 18.3237 27.6716 18.3237C27.6716 20.2838 27.6716 22.2373 27.6716 24.2282C25.672 24.2282 23.6793 24.2282 21.6479 24.2282C21.6479 22.2699 21.6479 20.3296 21.6479 18.3237Z" fill="#361041"/>
<path d="M33.137 24.2337C33.137 22.2606 33.137 20.3188 33.137 18.3364C35.1422 18.3364 37.1368 18.3364 39.1733 18.3364C39.1733 20.2944 39.1733 22.2487 39.1733 24.2337C37.1566 24.2337 35.162 24.2337 33.137 24.2337Z" fill="#361041"/>
<path d="M10.2797 24.224C10.2797 22.2621 10.2797 20.3198 10.2797 18.2963C10.6158 18.2963 10.943 18.2963 11.2703 18.2963C12.7381 18.2963 14.2059 18.2982 15.6737 18.2948C15.9467 18.2941 16.1944 18.2745 16.1916 18.6742C16.179 20.4576 16.1811 22.2411 16.1754 24.0245C16.1753 24.0777 16.1471 24.1308 16.1207 24.224C14.1894 24.224 12.2512 24.224 10.2797 24.224Z" fill="#361041"/>
<path d="M10.2661 31.7991C10.2661 29.8153 10.2661 27.8865 10.2661 25.9121C12.2132 25.9121 14.1505 25.9121 16.1444 25.9121C16.1593 26.0839 16.1876 26.2611 16.1881 26.4384C16.1916 28.0356 16.1773 29.633 16.1985 31.23C16.2044 31.6744 16.0938 31.85 15.6122 31.8417C13.9968 31.814 12.3807 31.8319 10.765 31.83C10.6194 31.8298 10.4739 31.8125 10.2661 31.7991Z" fill="#361041"/>
<path d="M16.185 33.481C16.185 35.3731 16.191 37.2089 16.1703 39.0444C16.1691 39.1573 15.9584 39.3639 15.8434 39.3651C14.008 39.3855 12.1724 39.3795 10.2919 39.3795C10.2919 37.3955 10.2919 35.4582 10.2919 33.481C12.2285 33.481 14.165 33.481 16.185 33.481Z" fill="#361041"/>
<path d="M38.5566 35.3826C38.5571 36.6645 38.5708 37.9467 38.5493 39.2283C38.5423 39.6447 38.6875 39.7794 39.0956 39.7739C40.3958 39.7562 41.6966 39.763 42.997 39.77C43.9106 39.775 44.1092 40.0173 44.1039 41.0793C44.0995 41.9438 43.8352 42.2133 42.9768 42.2142C41.0075 42.2163 39.0381 42.2164 37.0688 42.2142C36.2615 42.2133 36 41.9935 35.9445 41.1775C35.9106 40.6802 35.9731 40.1771 35.9738 39.6765C35.9777 37.0198 35.9758 34.363 35.9757 31.7063C35.9757 31.2573 35.9225 30.6841 36.4547 30.5845C37.0229 30.4781 37.6486 30.5513 38.221 30.6759C38.3834 30.7113 38.5339 31.1979 38.5412 31.4815C38.575 32.781 38.556 34.082 38.5566 35.3826Z" fill="#361041"/>
</svg>
