<svg width="19" height="20" viewBox="0 0 19 20" fill="none" xmlns="http://www.w3.org/2000/svg">
<path d="M15.5859 7.5H13.0625V4.375C13.0625 3.38044 12.6872 2.42661 12.0191 1.72335C11.351 1.02009 10.4448 0.625 9.5 0.625C8.55517 0.625 7.64903 1.02009 6.98093 1.72335C6.31283 2.42661 5.9375 3.38044 5.9375 4.375V7.5H3.41406C3.29596 7.5 3.18269 7.54939 3.09918 7.63729C3.01567 7.7252 2.96875 7.84443 2.96875 7.96875V16.9062C2.96875 17.0306 3.01567 17.1498 3.09918 17.2377C3.18269 17.3256 3.29596 17.375 3.41406 17.375H15.5859C15.704 17.375 15.8173 17.3256 15.9008 17.2377C15.9843 17.1498 16.0312 17.0306 16.0312 16.9062V7.96875C16.0312 7.84443 15.9843 7.7252 15.9008 7.63729C15.8173 7.54939 15.704 7.5 15.5859 7.5ZM11.6523 7.5H7.34766V4.3457C7.34766 3.74482 7.57442 3.16855 7.97806 2.74366C8.38171 2.31878 8.92916 2.08008 9.5 2.08008C10.0708 2.08008 10.6183 2.31878 11.0219 2.74366C11.4256 3.16855 11.6523 3.74482 11.6523 4.3457V7.5Z" fill="white"/>
</svg>
