<svg width="24" height="24" viewBox="0 0 24 24" fill="none" xmlns="http://www.w3.org/2000/svg">
<path fill-rule="evenodd" clip-rule="evenodd" d="M12 22C6.47715 22 2 17.5228 2 12C2 6.47715 6.47715 2 12 2C17.5228 2 22 6.47715 22 12H24C24 5.37258 18.6274 0 12 0C5.37258 0 0 5.37258 0 12C0 18.6274 5.37258 24 12 24C13.6457 24 15.214 23.6687 16.6419 23.0692L15.8683 21.2243C14.6784 21.7239 13.3714 22 12 22Z" fill="#FFBBBC"/>
<rect x="19" y="16" width="4" height="4" rx="2" fill="#F41870"/>
<path d="M12.8293 16.594H12.0593V8.883L10.2553 9.928L10.2663 9.125L12.2903 7.937H12.8293V16.594Z" fill="#F41870"/>
</svg>
