<svg width="24" height="24" viewBox="0 0 24 24" fill="none" xmlns="http://www.w3.org/2000/svg">
<rect x="1" y="1" width="22" height="22" rx="11" stroke="#FFBBBC" stroke-width="2"/>
<path d="M14.6767 14.042C14.6767 14.548 14.5594 15.0063 14.3247 15.417C14.09 15.8203 13.7674 16.1357 13.3567 16.363C12.9534 16.5977 12.495 16.715 11.9817 16.715C11.3804 16.715 10.856 16.572 10.4087 16.286C9.96136 16 9.6607 15.5967 9.5067 15.076L10.1117 14.724C10.229 15.1127 10.4527 15.428 10.7827 15.67C11.1127 15.912 11.5124 16.033 11.9817 16.033C12.3557 16.033 12.6894 15.9487 12.9827 15.78C13.276 15.6113 13.5034 15.3767 13.6647 15.076C13.8334 14.7753 13.9177 14.4307 13.9177 14.042C13.9177 13.404 13.7417 12.9127 13.3897 12.568C13.045 12.2233 12.561 12.051 11.9377 12.051C11.351 12.051 10.9147 12.2233 10.6287 12.568L10.1777 12.106L13.2247 8.63H9.8917V7.937H14.2367V8.476L11.6627 11.391C11.7727 11.3617 11.8864 11.347 12.0037 11.347C12.517 11.347 12.9754 11.4607 13.3787 11.688C13.7894 11.908 14.1084 12.2233 14.3357 12.634C14.563 13.0373 14.6767 13.5067 14.6767 14.042Z" fill="#F41870"/>
</svg>
