<svg width="24" height="24" viewBox="0 0 24 24" fill="none" xmlns="http://www.w3.org/2000/svg">
<rect x="1" y="1" width="22" height="22" rx="11" stroke="#FFBBBC" stroke-width="2"/>
<path d="M14.6547 15.901V16.594H9.3747V16.044L12.9717 12.304C13.5584 11.6953 13.8517 11.061 13.8517 10.401C13.8517 9.82167 13.683 9.35967 13.3457 9.015C13.0157 8.67033 12.5647 8.498 11.9927 8.498C11.5087 8.498 11.1017 8.619 10.7717 8.861C10.449 9.09567 10.2254 9.41833 10.1007 9.829L9.4957 9.466C9.65703 8.94533 9.9577 8.542 10.3977 8.256C10.845 7.96267 11.384 7.816 12.0147 7.816C12.5207 7.816 12.9717 7.926 13.3677 8.146C13.7637 8.366 14.0717 8.674 14.2917 9.07C14.519 9.45867 14.6327 9.90233 14.6327 10.401C14.6327 10.8263 14.5374 11.2297 14.3467 11.611C14.156 11.985 13.881 12.3663 13.5217 12.755L10.5077 15.901H14.6547Z" fill="#F41870"/>
</svg>
