<svg fill="none" height="594.073739" viewBox="0 0 594.07373867 594.07373867" width="594.073739" xmlns="http://www.w3.org/2000/svg" xmlns:xlink="http://www.w3.org/1999/xlink"><mask id="a" fill="#fff"><path d="m0 0h489.1v489.1h-489.1z" fill="#fff"/></mask><g fill-rule="evenodd" mask="url(#a)" transform="matrix(.24513818 .96948815 -.96948815 .24513818 474.176654 0)"><path d="m207.61 211.45c-11.05-8.94-21.52-18.59-31.33-28.89-3.67-4.43-11.92-10.24-13.6-15.28-.62-8.31.05-16.66 1.99-24.76 1.68-21.86-.77-39.44 12.68-57.93 11.16-15.59 35.61-34.09 20.33-55.18-1.86-2.48-4.32-4.44-7.16-5.68-2.84-1.25-5.95-1.73-9.04-1.4-3.08.32-6.03 1.44-8.55 3.24-2.52 1.81-4.52 4.24-5.82 7.05-4.13-12.53-19.26-27.97-31.48-14.06-16.66 19.56 7.64 48.91 15.28 66.33 11.77 21.1 3.21 48.15 3.21 70.77-14.83-21.09-44.32-53.65-41.12-80.7 2.76-18.34 10.4-35.31 10.09-52.88-1.98-14.83-11.31-26.45-26.59-20.48-6.09 2.12-11.2 6.41-14.35 12.04s-4.14 12.22-2.77 18.53c-14.83-11.62-46.46-16.36-42.19 11.61 3.67 22.77 27.67 32.71 45.86 40.96 14.72 8.43 26.54 21.11 33.93 36.38 10.7 15.29 21.85 30.57 33.32 45.85-19.87-9.17-41.42-12.07-61.14-20.02-15.59-6.27-23.08-29.5-35.61-41.88-21.09-20.48-55.33 1.53-30.57 24.61-10.85 1.98-21.4 6.27-22.93 18.95-.4 6.02 1.48 11.96 5.29 16.64 3.79 4.68 9.22 7.74 15.19 8.58 13.13 1.21 26.35-1.01 38.37-6.42 10.15-5.24 21.44-7.87 32.86-7.64 11.49 2.04 22.75 5.22 33.62 9.48 11.29 1.64 22.3 4.82 32.71 9.47 3.95 3.52 7.48 7.47 10.55 11.77 7.8 8.7 16.12 16.91 24.91 24.61-18.12 1.07-36.29 1.07-54.41 0-13.61-2.9-26.1-9.7-35.92-19.57-12.99-9.78-35.76-18.79-48.14-1.83-10.55 14.52 5.5 24.15 17.42 28.12-3.09 1.29-5.89 3.17-8.24 5.55-2.36 2.37-4.23 5.19-5.49 8.29-1.27 3.09-1.91 6.41-1.88 9.75.02 3.35.7 6.66 2.01 9.74 3.35 4.69 8.27 8.04 13.88 9.44 5.6 1.4 11.51.76 16.69-1.8 11.78-4.32 22.29-11.52 30.56-20.95 6.27-6.26 13-15.28 22.47-15.28 13.72-1.25 27.5-1.65 41.27-1.22h15.28c6.22.22 12.16 2.59 16.82 6.73 18.16 12.22 37.16 23.15 56.85 32.7-24.6 2.45-46.76 12.08-70.46 2.45-12.64-6.79-25.71-12.77-39.13-17.89-14.21-3.81-37.14-1.52-38.2 17.43-1.23 15.13 16.81 22.92 29.34 22.92-19.41 10.25-22.31 40.2 3.98 42.65 20.78 1.53 35.61-14.82 47.68-29.04 5.02-7.3 11.73-13.28 19.57-17.42 10.81-3.39 21.91-5.8 33.16-7.19 10.11-4.03 20.91-6.06 31.79-5.96 10.41 3.64 20.61 7.82 30.57 12.53-25.52 8.11-46.15 23.7-73.21 27.97-10.54 1.38-26.9 2.76-29.19 16.66-2.29 13.91 12.07 18.35 22.77 12.85-3.97 12.37.61 28.12 17.12 24.14 16.51-3.97 15.89-23.23 18.8-36.22 5.65-21.4 33.32-31.95 51.51-39.74 10.24-5.04 31.02 5.65 42.94 5.65-33.62 6.88-61.44 24.92-66.94 61.14 20.94-9.17 45.24-10.24 63.12-25.52 8.75-7.36 16.06-16.27 21.56-26.29 2.44-4.89 1.68-6.12 5.96-7.49 4.25-.68 8.58-.68 12.84 0 5.8.3 12.22 1.53 17.11 1.53s13 3.51 18.35 0c5.34-3.52 3.05-6.88-1.23-9.33-7.66-2.06-15.61-2.88-23.54-2.44l-17.57-1.07c-2.04.16-4.08.16-6.12 0 4.9-10.03 7.34-21.08 7.13-32.25-.22-11.16-3.08-22.11-8.35-31.95-9.17-16.2-23.69-29.65-33.78-44.93-7.91 17.25-11.28 36.25-9.78 55.17.8 9.92 3.57 19.58 8.16 28.4 4.6 8.82 10.92 16.63 18.59 22.96-17.47-2.38-34.64-6.64-51.2-12.68-7.1-1.46-13.94-3.93-20.33-7.34-5.05-3.21-5.05-12.23-5.05-18.5-1.81-10.08-2.38-20.35-1.68-30.56.4-3.04 1.17-6.02 2.3-8.87 1.45-3.06 3.73-5.65 6.57-7.49 14.06-11.01 31.63-24.15 30.57-44.33-1.07-26.59-33.02-28.58-45.86-9.01-3.97-11.62-18.03-20.94-28.73-10.85-13.6 12.68-4.28 33.01 4.74 45.08 8.97 9.51 14.88 21.49 16.96 34.4 2.45 16.35 2.76 30.56 6.27 45.85-21.21-9.11-41.65-19.89-61.14-32.25-3.05-1.99-11.92-6.12-13.6-9.48-.46-2.73-.46-5.52 0-8.25.46-11.77-.3-24.46 1.22-36.07 0-25.22 29.81-36.84 40.2-59 2.92-4.88 4-10.64 3.05-16.25-.95-5.6-3.88-10.68-8.25-14.32-5.22-2.44-11.13-2.99-16.71-1.53-5.58 1.45-10.48 4.8-13.85 9.48-4.28-11.62-16.51-23.85-27.52-9.94-11 13.91.92 38.37 6.12 52.43 8.86 24.15 5.04 50.74 6.26 76.42z" fill="#361041" transform="translate(21.81 52.05)"/><g fill="#f41870"><path d="m46.25 5.59c-9.48-9.63-25.83 11.16-25.83 11.16s-7.79-22.62-17.88-15.29c-10.09 7.34 13.14 48.61 13.14 48.61s40.05-34.85 30.57-44.48z" transform="translate(223.37 142.97)"/><path d="m45.32 8.13c-12.38-6.87-21.4 15.29-21.4 15.29s-11.92-30.57-21.86-21.86c-9.93 8.71 19.26 49.06 19.26 49.06s36.38-35.61 24-42.49z" transform="translate(164.38 81.28)"/><path d="m55.29.19c-18.03-3.06-17.12 31.79-17.12 31.79s-35.61-23.84-38.05-8.56c-2.91 18.65 49.21 35.92 49.21 35.92s24-56.09 5.96-59.15z" transform="translate(68.82 68.28)"/><path d="m18.87.42c-13.45 5.2 5.19 25.68 5.19 25.68s-25.52 3.36-23.99 18.49c1.52 15.13 54.26-5.04 54.26-5.04s-22.01-44.32-35.46-39.13z" transform="translate(34.93 162.35)"/><path d="m2.6 1.56c-10.4 9.32 25.21 25.37 25.21 25.37s-37.9 18.03-25.21 26.9c15.28 10.85 50.89-25.98 50.89-25.98s-40.5-35.62-50.89-26.29z" transform="translate(89.11 248.19)"/><path d="m1.21 3.02c-8.86 12.84 33.78 22.32 33.78 22.32s-34.54 23.69-18.49 32.25c16.04 8.56 50.28-35.16 50.28-35.16s-56.7-32.25-65.57-19.41z" transform="translate(160.5 312.3)"/><path d="m53.67 5.57c-13.6-9.33-30.57 13.3-30.57 13.3s-9.93-25.68-20.94-17.12c-11 8.56 23.54 46.77 23.54 46.77s45.85-30.57 27.97-42.95z" transform="translate(290.38 196.03)"/><path d="m.04 13.15c-1.22 11.31 23.54 0 23.54 0s-7.34 29.04 2.6 25.37c9.93-3.67 15.28-38.52 15.28-38.52s-40.19 1.83-41.42 13.15z" transform="translate(251.54 368.96)"/></g><g fill="#ffbbbc"><path d="m26 37.3c-3.96-14.39-11.97-27.34-23.08-37.3-12.99 55.48 21.55 78.26 21.55 78.26 5.33-13.05 5.87-27.56 1.53-40.96z" transform="translate(382.55 251.27)"/><path d="m25.83 14.83c-10.47 6.64-19.31 15.58-25.83 26.13 12.21-3.36 23.85-8.51 34.54-15.28 10.13-7.21 19.14-15.86 26.75-25.68-12.44 3.31-24.37 8.3-35.46 14.83z" transform="translate(339.16 356.43)"/></g></g></svg>